<?xml version="1.0" encoding="utf-8"?>
<!-- Generator: Adobe Illustrator 18.0.0, SVG Export Plug-In . SVG Version: 6.00 Build 0)  -->
<!DOCTYPE svg PUBLIC "-//W3C//DTD SVG 1.1//EN" "http://www.w3.org/Graphics/SVG/1.1/DTD/svg11.dtd">
<svg version="1.1" id="Layer_1" xmlns="http://www.w3.org/2000/svg" xmlns:xlink="http://www.w3.org/1999/xlink" x="0px" y="0px"
	 viewBox="-0.2 482.6 792.2 258.9" enable-background="new -0.2 482.6 792.2 258.9" xml:space="preserve">
<path fill="#FFFFFF" d="M205.9,538.2c8.4,0,15.1-5.8,15.1-12.9s-6.7-12.9-15.1-12.9c-8.4,0-15.1,5.8-15.1,12.9
	S197.7,538.2,205.9,538.2"/>
<path fill="#FFFFFF" d="M724.4,531.6c5.2,0-3.5,7-1.8,8.7c1.7,1.7,20.2-3.2,20.2-21.4c0-7.1-6.8-12.9-15.1-12.9
	c-8.4,0-15.1,5.8-15.1,12.9C712.7,525.3,719.2,531.6,724.4,531.6"/>
<path fill="#FFFFFF" d="M786.9,601.3c8.7-24.6-13.3-44.8-17.2-50.5c-3.2-5.2,0-8,1.2-8.8c2-4.3,1.1-13.5-10.7-13.5
	c-17.7,0-21,20.6-16.4,24.9c0.1,8.8-23,14.4-21.7,7.5c1.1-6.9-1.6-17.7-12.6-17.7c-3.3,0-6.2,0.9-8.7,2.3c-2.3-0.8-4.9-1.1-7.6-1.1
	c-19,0-40,18.6-47.8,42c-6.7,12.3-14.9,22.5-23.6,22.5c-10.3,0,0.4-15.2,5-23c4.7-7.9,29.9-39.9,0.9-39.9
	c-15.3,0-26.9,6.4-34.3,12.5c0.4-0.7,0.8-1.3,1.2-2c2.7-4.2-3.2-10.9-10.1-11.8c-5.2-0.7-8.8-0.3-11.1,1c-0.8,0.4-1.3,1-1.9,1.7
	c-2,2.6-13.3,22.7-20.4,40.8c-0.1,0.1-0.2,0.2-0.2,0.4c-4.5,8.4-12.8,20.4-21.2,20.4c-8.2,0,7.9-37.9,16.8-52.4
	c2.7-4.2-3.2-10.9-10.1-11.8c-6.9-0.9-10.9,0-13,2.7c-0.7,0.8-2.2,3.5-4.3,7.2c-4.1-6.5-10.8-10.3-19.4-10.3
	c-19.3,0-41,19.5-48.4,43.5c-0.4,1.6-0.9,3.1-1.2,4.7c-4.6,5.9-13.6,16.7-19.6,16.5c-6.1-0.2,2.3-25.1,12.4-46.7
	c6-13,14.9-26.9,17.1-30.4c64.7,11,96-39.2,61.4-47.7c-27.1-6.6-51.1,8-67.3,22.9c-14.7-3.8-31.3-7.8-50.8-8
	c-45.4-0.6-59.6,20.4-59.1,24.9s6.1-6.1,26.5-9.1c19-2.9,36.7,4.7,65.8,12c-4,5.2-14.9,24.1-16.1,26.6c-4.1-5.6-10.5-8.9-18.5-8.9
	c-18.5,0-39.2,17.9-47.4,40.6c0,0,0,0.1-0.1,0.1c-3.8,10.5-15.2,22.7-26.2,22.7c-11,0-0.1-13.8,6.9-24.2
	c7.1-10.4,15.5-15.6,12.9-21.6c-2.6-6.1-26.5-13.5-22.9-19.1c2.6-3.8,2.5-14.4-10.3-14.4c-17.7,0-21,20.6-16.4,24.9
	c0.1,8.8-16.8,14.4-15.6,7.5c1.1-6.9-1.6-17.7-12.6-17.7c-3.3,0-6.2,0.9-8.7,2.3c-2.3-0.8-4.9-1.1-7.6-1.1
	c-19.4,0-41,19.5-48.4,43.5c-0.1,0.2-0.1,0.3-0.1,0.6c0,0.1,0,0.1-0.1,0.2c-2.3,7.4-11.5,20.4-19.8,20.4c-8.2,0,7.9-37.9,16.8-52.4
	c2.7-4.2-3.2-10.9-10.1-11.8c-6.9-0.9-10.9,0-13,2.7c-2.9,3.8-26.4,46.7-26.4,63.4s11.5,20.6,23.4,20.4c8.9-0.2,21.4-11.8,28-18.5
	c2.9,11.4,11.1,18.7,23.1,18.7c19.3,0,41-19.5,48.4-43.5c0.4-1.4,0.8-2.9,1.1-4.2c0.1,0,0.2,0,0.4,0c19.6,0,31.8-19.5,31.8-19.5
	s8.1,3.8,5.8,8.9c-2.3,5.1-15.2,20.3-20.6,31.9c-5.4,11.6-4.2,26.4,16.1,26.4c19.6,0,35.8-12.3,42.3-17.4
	c3.1,10.6,11.3,17.4,22.6,17.4c8.4,0,17.2-3.7,25.1-9.7c2.6,6.1,12.7,11.8,22.9,9.4c8.8-1.3,21-12.8,26.9-19
	c2.7,11.7,11,19.4,23.2,19.4c8.7,0,17.8-3.9,26-10.5c3.8,8.1,12.5,10.3,21.5,10.3c4.7,0,10.5-3.5,15.9-7.7c1.3,3.3,5.6,6.7,10.4,7.4
	c5.2,0.7,8.8,0.3,11.1-1c0.8-0.4,1.3-1,1.9-1.7c1.3-1.7,6.7-11.1,12.3-22.6c8-14,24.1-37.2,34.2-37.2c4.3,0,4.3,7.9-3.2,20.4
	c-7.7,12.5-24.2,42.6,8.4,42.6c16.5,0,26.6-8.7,32.8-17.5c3.1,10.7,11.1,17.6,22.7,17.6c19.3,0,41-19.5,48.4-43.5
	c0.4-1.4,0.8-2.9,1.1-4.2c0.1,0,0.2,0,0.4,0c19.6,0,37.9-19.5,37.9-19.5s0,0,0.1,0.1l-0.1,0.1c0,0,8.1,8.2,7.6,20.7
	c-6-1-12.8-0.9-20.3,0.9c-26,6.1-29,26.6-25.3,35c8.1,18.8,38.8,17.6,57.1,0.1c2-1.9,3.7-3.7,5.2-5.6c2.9,13.3-7.7,29.3-45.5,34.7
	c-155.7,22.4-201.5,56.4-257.2,62.7c-20.1,2.2-40.9-2.8-52.7-20.8c-10-15.3-1.8-28.9,5.7-29.7c4.7-0.4,7.5,3.2,7.5,3.2
	s-4.7,9.6,6,13.2s25.4-7.9,15.4-23.5c-8.9-13.9-35.6-11.7-46.7,2.9c-4.5,5.8-7,13.7-7.5,22.4c-0.3-8.6-2.9-16.5-7.4-22.4
	c-11.3-14.6-37.8-16.7-46.7-2.9c-10,15.7,4.7,27.1,15.4,23.5c10.7-3.6,6-13.2,6-13.2s2.8-3.7,7.5-3.2c7.5,0.7,15.1,13.9,5.7,29.7
	c-5.6,9.5-21.1,21.7-51.4,21.1c-60.2-1.4-145.9-42.6-207.8-61.8c4.7-7.7,7.9-14.9,10-20.7c9.9-27.5,12.4-83.7,22.9-101.8
	c7.5-12.9,15.1-14.6,16.3-16.2c0.6-0.7-1.6-1.9-3.5-2.3c-14.8-4.5-33.1,11.8-42.1,33.9c-8.2,20.1-20,50.7-37.5,49.3
	c-14.8-1.2-18.2-20.4,17.8-62.4c36-42.1,78.5-31.8,81.7-31.1c3.2,0.7,6.4-6.2-11.4-11c-20.1-5.9-94.3-0.6-134.7,73.2
	c-19.6,35.9-8.9,62.1,6.7,66.7c23.5,6.8,51.8-19.2,51.8-19.2s-0.3,15.5-9.4,33.2c-3.7-0.7-7.2-1.2-10.6-1.4
	c-73.6-6.7-82.9,28.9-83.5,34.9c-0.3,3.9,0.2,25.1,36.5,25.5c36.5,0.4,61.4-16.9,77.5-36.1c64.1,21.6,154.6,71.9,213.5,75.1
	c52.1,2.9,74.8-29.3,76-56.6c0.7,21.3,14.3,45.5,44.7,53.3c67.3,17.2,130.2-40.8,297.6-74C789.8,655,799.5,622,786.9,601.3
	 M512.8,493c9.8,0.7,15.8,11.7-8.9,19.2c-9.3,2.8-19,2-29.8-0.2C488.3,496.4,501.1,492.3,512.8,493 M255.1,587.7
	c-5.2,12.6-14.6,22.7-21,22.7s-7.4-10.3-2.1-22.7c5.2-12.6,14.6-22.7,21-22.7C259.3,565,260.2,575.2,255.1,587.7 M402.8,587.7
	c-5.2,12.6-14.6,22.7-21,22.7c-6.4,0-7.4-10.3-2.1-22.7c5.2-12.6,14.6-22.7,21-22.7C407.1,565,408,575.2,402.8,587.7 M500.8,587.7
	c-5.2,12.6-14.6,22.7-21,22.7c-6.4,0-7.4-10.3-2.1-22.7c5.2-12.6,14.6-22.7,21-22.7C505.1,565,506,575.2,500.8,587.7 M694.8,587.8
	c-5.2,12.6-14.6,22.7-21,22.7s-7.4-10.3-2.1-22.7c5.2-12.6,14.6-22.7,21-22.7C699,565.1,699.9,575.2,694.8,587.8 M735.8,617.4
	c-9.9,0.8-9-9.6-2.5-14.6c8.6-6.5,17.7-7.8,25.6-5.9C754.5,607,745.7,616.7,735.8,617.4 M73.4,670c-20.8,17.7-53.3,16.5-51.6,4.8
	c3.1-22.4,46.5-18.5,53-17.9c3.1,0.3,6.6,0.8,10,1.4C81.4,662.3,77.7,666.2,73.4,670"/>
</svg>
